<svg id="f" xmlns="http://www.w3.org/2000/svg" xmlns:xlink="http://www.w3.org/1999/xlink" width="41" height="41" viewBox="0 0 41 41">
  <metadata><?xpacket begin="﻿" id="W5M0MpCehiHzreSzNTczkc9d"?>
<x:xmpmeta xmlns:x="adobe:ns:meta/" x:xmptk="Adobe XMP Core 5.6-c138 79.159824, 2016/09/14-01:09:01        ">
   <rdf:RDF xmlns:rdf="http://www.w3.org/1999/02/22-rdf-syntax-ns#">
      <rdf:Description rdf:about=""/>
   </rdf:RDF>
</x:xmpmeta>
                                                                                                    
                                                                                                    
                                                                                                    
                                                                                                    
                                                                                                    
                                                                                                    
                                                                                                    
                                                                                                    
                                                                                                    
                                                                                                    
                                                                                                    
                                                                                                    
                                                                                                    
                                                                                                    
                                                                                                    
                                                                                                    
                                                                                                    
                                                                                                    
                                                                                                    
                                                                                                    
                           
<?xpacket end="w"?></metadata>
<defs>
    <style>
      .cls-1 {
        fill: #7442d1;
        fill-rule: evenodd;
        filter: url(#filter);
      }

      .cls-2 {
        fill: #201f20;
        fill-opacity: 0;
        stroke: #99b0b7;
        stroke-linejoin: round;
        stroke-width: 1px;
      }
    </style>
    <filter id="filter" x="1143" y="5471" width="13.94" height="23" filterUnits="userSpaceOnUse">
      <feFlood result="flood" flood-color="#838a94"/>
      <feComposite result="composite" operator="in" in2="SourceGraphic"/>
      <feBlend result="blend" in2="SourceGraphic"/>
    </filter>
  </defs>
  <path id="f_копия" data-name="f копия" class="cls-1" d="M1147.37,5482.88h0a0.378,0.378,0,0,1-.37-0.38l0.02-5.78a5.705,5.705,0,0,1,1.65-4.03,5.59,5.59,0,0,1,8-.01c0.07,0.07.13,0.16,0.2,0.24a0.378,0.378,0,0,1-.08.52,0.357,0.357,0,0,1-.51-0.07,1.109,1.109,0,0,0-.12-0.16,4.9,4.9,0,0,0-6.98,0,5.023,5.023,0,0,0-1.43,3.51l-0.02,5.78A0.37,0.37,0,0,1,1147.37,5482.88Zm4.84,0h-4.84a0.375,0.375,0,0,1,0-.75h4.84A0.375,0.375,0,0,1,1152.21,5482.88Zm-4.84,0h-4a0.375,0.375,0,0,1,0-.75h4A0.375,0.375,0,0,1,1147.37,5482.88Zm0,11.12a0.376,0.376,0,0,1-.37-0.37V5482.5a0.376,0.376,0,0,1,.37-0.37,0.367,0.367,0,0,1,.36.37v11.13A0.367,0.367,0,0,1,1147.37,5494Z" transform="translate(-1129.5 -5461.5)"/>
  <circle id="Эллипс_1_копия" data-name="Эллипс 1 копия" class="cls-2" cx="20.5" cy="20.5" r="20"/>
</svg>
