<svg id="g_" data-name="g+" xmlns="http://www.w3.org/2000/svg" xmlns:xlink="http://www.w3.org/1999/xlink" width="41" height="41" viewBox="0 0 41 41">
  <metadata><?xpacket begin="﻿" id="W5M0MpCehiHzreSzNTczkc9d"?>
<x:xmpmeta xmlns:x="adobe:ns:meta/" x:xmptk="Adobe XMP Core 5.6-c138 79.159824, 2016/09/14-01:09:01        ">
   <rdf:RDF xmlns:rdf="http://www.w3.org/1999/02/22-rdf-syntax-ns#">
      <rdf:Description rdf:about=""/>
   </rdf:RDF>
</x:xmpmeta>
                                                                                                    
                                                                                                    
                                                                                                    
                                                                                                    
                                                                                                    
                                                                                                    
                                                                                                    
                                                                                                    
                                                                                                    
                                                                                                    
                                                                                                    
                                                                                                    
                                                                                                    
                                                                                                    
                                                                                                    
                                                                                                    
                                                                                                    
                                                                                                    
                                                                                                    
                                                                                                    
                           
<?xpacket end="w"?></metadata>
<defs>
    <style>
      .cls-1 {
        fill: #7442d1;
        fill-rule: evenodd;
        filter: url(#filter);
      }

      .cls-2 {
        fill: #201f20;
        fill-opacity: 0;
        stroke: #99b0b7;
        stroke-linejoin: round;
        stroke-width: 1px;
      }
    </style>
    <filter id="filter" x="1241" y="5472" width="21" height="21" filterUnits="userSpaceOnUse">
      <feFlood result="flood" flood-color="#838a94"/>
      <feComposite result="composite" operator="in" in2="SourceGraphic"/>
      <feBlend result="blend" in2="SourceGraphic"/>
    </filter>
  </defs>
  <path id="g_копия" data-name="g+ копия" class="cls-1" d="M1251.61,5473.54h-4.77a0.34,0.34,0,0,1-.34-0.35,0.346,0.346,0,0,1,.34-0.35h4.77a0.346,0.346,0,0,1,.34.35A0.34,0.34,0,0,1,1251.61,5473.54Zm-3.35,7.97a0.354,0.354,0,0,1-.12-0.68,3.878,3.878,0,0,0,1.15-6.18,3.344,3.344,0,0,0-2.46-1.11,0.347,0.347,0,0,1-.33-0.36,0.331,0.331,0,0,1,.34-0.34,4.048,4.048,0,0,1,2.93,1.31,4.6,4.6,0,0,1,0,6.35,4.166,4.166,0,0,1-1.38.98A0.277,0.277,0,0,1,1248.26,5481.51Zm-1.52.3a4.072,4.072,0,0,1-3.04-1.31,4.657,4.657,0,0,1,0-6.35,4.048,4.048,0,0,1,2.93-1.31h0.21a0.346,0.346,0,0,1,.34.35,0.34,0.34,0,0,1-.34.35h-0.21a3.339,3.339,0,0,0-2.45,1.11,3.905,3.905,0,0,0,0,5.35,3.391,3.391,0,0,0,2.56,1.1,3.565,3.565,0,0,0,1.4-.27,0.327,0.327,0,0,1,.44.19,0.354,0.354,0,0,1-.19.46A4.086,4.086,0,0,1,1246.74,5481.81Zm0.1,11.18a6.774,6.774,0,0,1-4.09-1.24,3.681,3.681,0,0,1,0-6.28,6.768,6.768,0,0,1,4.09-1.23,7.259,7.259,0,0,1,3.03.61,5.362,5.362,0,0,1,.53.28l0.11,0.05c0.1,0.06.19,0.13,0.28,0.19,0.05,0.03.09,0.06,0.14,0.09a3.7,3.7,0,0,1,.01,6.29A6.784,6.784,0,0,1,1246.84,5492.99Zm0-8.05a6.148,6.148,0,0,0-3.7,1.11,2.964,2.964,0,0,0,0,5.12,6.738,6.738,0,0,0,7.41,0,2.974,2.974,0,0,0,0-5.12,1.161,1.161,0,0,0-.14-0.09,1.882,1.882,0,0,0-.23-0.16l-0.1-.06a3.943,3.943,0,0,0-.46-0.23A6.612,6.612,0,0,0,1246.84,5484.94Zm2.9,0.59a0.369,0.369,0,0,1-.17-0.05c-2.51-1.47-2.25-3.26-1.6-4.5a0.337,0.337,0,0,1,.46-0.14,0.366,0.366,0,0,1,.13.48c-0.76,1.44-.33,2.57,1.34,3.55a0.354,0.354,0,0,1,.13.48A0.334,0.334,0,0,1,1249.74,5485.53Zm11.91-8.48h-4.66a0.356,0.356,0,0,1,0-.71h4.66A0.355,0.355,0,0,1,1261.65,5477.05Zm-4.66,4.42a0.338,0.338,0,0,1-.33-0.35v-4.43a0.335,0.335,0,1,1,.67,0v4.43A0.34,0.34,0,0,1,1256.99,5481.47Zm0-4.42a0.347,0.347,0,0,1-.33-0.36v-4.34a0.335,0.335,0,1,1,.67,0v4.34A0.348,0.348,0,0,1,1256.99,5477.05Zm0,0h-4.22a0.355,0.355,0,0,1,0-.71h4.22A0.355,0.355,0,0,1,1256.99,5477.05Z" transform="translate(-1229.5 -5461.5)"/>
  <circle id="Эллипс_1_копия" data-name="Эллипс 1 копия" class="cls-2" cx="20.5" cy="20.5" r="20"/>
</svg>
