<svg id="in" xmlns="http://www.w3.org/2000/svg" width="41" height="41" viewBox="0 0 41 41">
  <metadata><?xpacket begin="﻿" id="W5M0MpCehiHzreSzNTczkc9d"?>
<x:xmpmeta xmlns:x="adobe:ns:meta/" x:xmptk="Adobe XMP Core 5.6-c138 79.159824, 2016/09/14-01:09:01        ">
   <rdf:RDF xmlns:rdf="http://www.w3.org/1999/02/22-rdf-syntax-ns#">
      <rdf:Description rdf:about=""/>
   </rdf:RDF>
</x:xmpmeta>
                                                                                                    
                                                                                                    
                                                                                                    
                                                                                                    
                                                                                                    
                                                                                                    
                                                                                                    
                                                                                                    
                                                                                                    
                                                                                                    
                                                                                                    
                                                                                                    
                                                                                                    
                                                                                                    
                                                                                                    
                                                                                                    
                                                                                                    
                                                                                                    
                                                                                                    
                                                                                                    
                           
<?xpacket end="w"?></metadata>
<defs>
    <style>
      .cls-1 {
        fill: #201f20;
        stroke: #99b0b7;
      }

      .cls-1, .cls-2 {
        fill-opacity: 0;
        stroke-linejoin: round;
        stroke-width: 1px;
      }

      .cls-2 {
        fill: #fff;
        stroke: #838a94;
        fill-rule: evenodd;
      }
    </style>
  </defs>
  <circle id="Эллипс_1_копия" data-name="Эллипс 1 копия" class="cls-1" cx="20.5" cy="20.5" r="20"/>
  <path id="in-2" data-name="in" class="cls-2" d="M1359.61,5490.01a0.408,0.408,0,0,1-.39-0.41v-8.8a5.835,5.835,0,0,0-1.66-4.07,5.559,5.559,0,0,0-8.06,0,5.909,5.909,0,0,0-1.67,4.06,0.4,0.4,0,0,1-.4.4,0.409,0.409,0,0,1-.38-0.42,6.67,6.67,0,0,1,1.9-4.61,6.287,6.287,0,0,1,9.16,0,6.7,6.7,0,0,1,1.9,4.63v8.81A0.41,0.41,0,0,1,1359.61,5490.01Zm-15.96-16.56a1.54,1.54,0,0,1-1.16-.51,1.751,1.751,0,0,1,0-2.43,1.54,1.54,0,0,1,1.16-.51,1.582,1.582,0,0,1,1.17.51,1.751,1.751,0,0,1,0,2.43A1.561,1.561,0,0,1,1343.65,5473.45Zm0-2.63a0.8,0.8,0,0,0-.61.27,0.918,0.918,0,0,0,0,1.28,0.835,0.835,0,0,0,1.23,0,0.918,0.918,0,0,0,0-1.28A0.811,0.811,0,0,0,1343.65,5470.82Zm3.79,19.19a0.4,0.4,0,0,1-.39-0.41v-8.82a0.39,0.39,0,1,1,.78,0v8.82A0.4,0.4,0,0,1,1347.44,5490.01Zm0-8.82a0.4,0.4,0,0,1-.39-0.41v-5.73a0.39,0.39,0,1,1,.78,0v5.73A0.4,0.4,0,0,1,1347.44,5481.19Zm-4.01,8.82a0.408,0.408,0,0,1-.39-0.41v-14.55a0.4,0.4,0,0,1,.39-0.4,0.393,0.393,0,0,1,.39.4v14.55A0.4,0.4,0,0,1,1343.43,5490.01Z" transform="translate(-1329.5 -5461.5)"/>
</svg>
