<svg xmlns="http://www.w3.org/2000/svg" xmlns:xlink="http://www.w3.org/1999/xlink" width="30" height="19" viewBox="0 0 30 19">
  <metadata><?xpacket begin="﻿" id="W5M0MpCehiHzreSzNTczkc9d"?>
<x:xmpmeta xmlns:x="adobe:ns:meta/" x:xmptk="Adobe XMP Core 5.6-c138 79.159824, 2016/09/14-01:09:01        ">
   <rdf:RDF xmlns:rdf="http://www.w3.org/1999/02/22-rdf-syntax-ns#">
      <rdf:Description rdf:about=""/>
   </rdf:RDF>
</x:xmpmeta>
                                                                                                    
                                                                                                    
                                                                                                    
                                                                                                    
                                                                                                    
                                                                                                    
                                                                                                    
                                                                                                    
                                                                                                    
                                                                                                    
                                                                                                    
                                                                                                    
                                                                                                    
                                                                                                    
                                                                                                    
                                                                                                    
                                                                                                    
                                                                                                    
                                                                                                    
                                                                                                    
                           
<?xpacket end="w"?></metadata>
<defs>
    <style>
      .cls-1 {
        fill: #474747;
        fill-rule: evenodd;
        filter: url(#filter);
      }
    </style>
    <filter id="filter" x="943" y="5148" width="30" height="19" filterUnits="userSpaceOnUse">
      <feFlood result="flood" flood-color="#fff"/>
      <feComposite result="composite" operator="in" in2="SourceGraphic"/>
      <feBlend result="blend" in2="SourceGraphic"/>
    </filter>
  </defs>
  <path id="Mail" class="cls-1" d="M971.834,5166.99H944.169a1.02,1.02,0,0,1-1.03-1.01v-16.96a1.02,1.02,0,0,1,1.03-1.01h27.665a1.02,1.02,0,0,1,1.03,1.01v16.96A1.02,1.02,0,0,1,971.834,5166.99Zm-27.528-1.14H971.7v-16.69H944.306v16.69Zm27.528,1.15H944.169a0.98,0.98,0,0,1-.575-0.17l-0.585-.39,9.891-9.72,5.1,5.02,5.1-5.02,9.9,9.73-0.592.38A0.977,0.977,0,0,1,971.834,5167Zm-18.934-8.66-7.67,7.54,25.521-.02-7.648-7.52-4.345,4.27a1.1,1.1,0,0,1-1.513,0Zm5.1,4.54a1.059,1.059,0,0,1-.756-0.3l-14.232-13.99,0.546-.39a1.029,1.029,0,0,1,.61-0.2h27.665a1.034,1.034,0,0,1,.611.2l0.545,0.39-14.232,13.99A1.058,1.058,0,0,1,958,5162.88Zm-12.777-13.74L958,5161.7l12.8-12.58Z" transform="translate(-943 -5148)"/>
</svg>
