<svg xmlns="http://www.w3.org/2000/svg" width="42.81" height="42.78" viewBox="0 0 42.81 42.78">
  <metadata><?xpacket begin="﻿" id="W5M0MpCehiHzreSzNTczkc9d"?>
<x:xmpmeta xmlns:x="adobe:ns:meta/" x:xmptk="Adobe XMP Core 5.6-c138 79.159824, 2016/09/14-01:09:01        ">
   <rdf:RDF xmlns:rdf="http://www.w3.org/1999/02/22-rdf-syntax-ns#">
      <rdf:Description rdf:about=""/>
   </rdf:RDF>
</x:xmpmeta>
                                                                                                    
                                                                                                    
                                                                                                    
                                                                                                    
                                                                                                    
                                                                                                    
                                                                                                    
                                                                                                    
                                                                                                    
                                                                                                    
                                                                                                    
                                                                                                    
                                                                                                    
                                                                                                    
                                                                                                    
                                                                                                    
                                                                                                    
                                                                                                    
                                                                                                    
                                                                                                    
                           
<?xpacket end="w"?></metadata>
<defs>
    <style>
      .cls-1 {
        fill: #bed1db;
        fill-rule: evenodd;
      }
    </style>
  </defs>
  <path id="Фигура_4_копия_6" data-name="Фигура 4 копия 6" class="cls-1" d="M1428.4,5593.66a21.4,21.4,0,1,1-21.4,21.39A21.4,21.4,0,0,1,1428.4,5593.66Zm-0.38,28.63a5.99,5.99,0,1,1-6.02,5.99A5.988,5.988,0,0,1,1428.02,5622.29Zm-6.02,5.84h12.01v10.27H1422v-10.27Zm-1.96-22.03a4.67,4.67,0,1,1-4.67,4.67A4.669,4.669,0,0,1,1420.04,5606.1Zm16.94-2.53a7.2,7.2,0,1,1-7.21,7.2A7.2,7.2,0,0,1,1436.98,5603.57Zm0.13,3.53a3.575,3.575,0,1,1-3.58,3.57A3.572,3.572,0,0,1,1437.11,5607.1Z" transform="translate(-1407 -5593.66)"/>
</svg>
