<svg xmlns="http://www.w3.org/2000/svg" xmlns:xlink="http://www.w3.org/1999/xlink" width="28" height="30" viewBox="0 0 28 30">
  <metadata><?xpacket begin="﻿" id="W5M0MpCehiHzreSzNTczkc9d"?>
<x:xmpmeta xmlns:x="adobe:ns:meta/" x:xmptk="Adobe XMP Core 5.6-c138 79.159824, 2016/09/14-01:09:01        ">
   <rdf:RDF xmlns:rdf="http://www.w3.org/1999/02/22-rdf-syntax-ns#">
      <rdf:Description rdf:about=""/>
   </rdf:RDF>
</x:xmpmeta>
                                                                                                    
                                                                                                    
                                                                                                    
                                                                                                    
                                                                                                    
                                                                                                    
                                                                                                    
                                                                                                    
                                                                                                    
                                                                                                    
                                                                                                    
                                                                                                    
                                                                                                    
                                                                                                    
                                                                                                    
                                                                                                    
                                                                                                    
                                                                                                    
                                                                                                    
                                                                                                    
                           
<?xpacket end="w"?></metadata>
<defs>
    <style>
      .cls-1 {
        fill: #474747;
        fill-rule: evenodd;
        filter: url(#filter);
      }
    </style>
    <filter id="filter" x="945" y="4812" width="28" height="30" filterUnits="userSpaceOnUse">
      <feFlood result="flood" flood-color="#fff"/>
      <feComposite result="composite" operator="in" in2="SourceGraphic"/>
      <feBlend result="blend" in2="SourceGraphic"/>
    </filter>
  </defs>
  <path id="Phone" class="cls-1" d="M967.091,4842h-0.162c-3.734-.19-8.778-3.58-13.494-9.07l-1.741-2.03c-4.716-5.49-7.186-10.86-6.609-14.35,0.408-2.47,4.209-4.55,6.381-4.55a1.564,1.564,0,0,1,1.593.82c1.229,2.11,2.75,5.77,2.757,7.09V4820l-0.035.09a2.7,2.7,0,0,1-1.413,1.31,1.614,1.614,0,0,0-1.155,1.36c-0.015.23,0.183,1.23,3.294,4.93l1.33,1.54c3.119,3.55,4.1,3.93,4.33,3.97a1.728,1.728,0,0,0,1.648-.79,2.777,2.777,0,0,1,1.65-1.04l0.1-.02,0.1,0.02c1.358,0.28,4.835,2.44,6.809,4.05a1.509,1.509,0,0,1,.389,1.92C972.24,4839.21,969.546,4842,967.091,4842Zm-15.625-28.97c-1.727,0-5,1.82-5.31,3.68-0.41,2.48,1.051,7.34,6.379,13.55l1.742,2.02c5.327,6.21,10.058,8.56,12.709,8.69h0.1c1.9,0.01,4.221-2.38,4.734-3.94a0.8,0.8,0,0,0-.015-0.8,25.824,25.824,0,0,0-6.277-3.83,2.062,2.062,0,0,0-.909.69,2.766,2.766,0,0,1-2.609,1.12c-0.609-.08-1.816-0.65-5.249-4.6l-0.348-.4h0l-0.269-.31h0l-0.341-.4c-3.377-3.99-3.716-5.22-3.677-5.8a2.627,2.627,0,0,1,1.694-2.19,2.03,2.03,0,0,0,.9-0.69,23.122,23.122,0,0,0-2.644-6.55A0.7,0.7,0,0,0,951.466,4813.03Z" transform="translate(-945 -4812)"/>
</svg>
