<svg id="tel" xmlns="http://www.w3.org/2000/svg" xmlns:xlink="http://www.w3.org/1999/xlink" width="18" height="20" viewBox="0 0 18 20">
  <metadata><?xpacket begin="﻿" id="W5M0MpCehiHzreSzNTczkc9d"?>
<x:xmpmeta xmlns:x="adobe:ns:meta/" x:xmptk="Adobe XMP Core 5.6-c138 79.159824, 2016/09/14-01:09:01        ">
   <rdf:RDF xmlns:rdf="http://www.w3.org/1999/02/22-rdf-syntax-ns#">
      <rdf:Description rdf:about=""/>
   </rdf:RDF>
</x:xmpmeta>
                                                                                                    
                                                                                                    
                                                                                                    
                                                                                                    
                                                                                                    
                                                                                                    
                                                                                                    
                                                                                                    
                                                                                                    
                                                                                                    
                                                                                                    
                                                                                                    
                                                                                                    
                                                                                                    
                                                                                                    
                                                                                                    
                                                                                                    
                                                                                                    
                                                                                                    
                                                                                                    
                           
<?xpacket end="w"?></metadata>
<defs>
    <style>
      .cls-1 {
        fill: #474747;
        fill-rule: evenodd;
        filter: url(#filter);
      }
    </style>
    <filter id="filter" x="1114" y="15" width="18" height="20" filterUnits="userSpaceOnUse">
      <feFlood result="flood" flood-color="#fff"/>
      <feComposite result="composite" operator="in" in2="SourceGraphic"/>
      <feBlend result="blend" in2="SourceGraphic"/>
    </filter>
  </defs>
  <path id="tel-2" data-name="tel" class="cls-1" d="M1128.2,35h0l-0.1,0c-2.4-.122-5.65-2.382-8.68-6.044L1118.3,27.6c-3.03-3.663-4.62-7.239-4.25-9.568,0.27-1.643,2.71-3.03,4.11-3.03a1,1,0,0,1,1.02.546,15.2,15.2,0,0,1,1.77,4.722v0.063l-0.02.058a1.737,1.737,0,0,1-.91.875,1.06,1.06,0,0,0-.74.909c-0.01.147,0.12,0.816,2.12,3.28l0.85,1.032c2.01,2.366,2.64,2.621,2.79,2.642a1.1,1.1,0,0,0,1.06-.526,1.762,1.762,0,0,1,1.06-.691l0.06-.009,0.06,0.014a16.05,16.05,0,0,1,4.38,2.694,1.039,1.039,0,0,1,.25,1.28C1131.51,33.141,1129.78,35,1128.2,35Zm-10.04-19.313c-1.11,0-3.22,1.212-3.42,2.452-0.26,1.652.68,4.893,4.1,9.032l1.12,1.352c3.43,4.138,6.47,5.7,8.17,5.791l0.07,0c1.22,0,2.71-1.591,3.04-2.629a0.544,0.544,0,0,0-.01-0.537,16.5,16.5,0,0,0-4.03-2.551,1.328,1.328,0,0,0-.59.46,1.723,1.723,0,0,1-1.67.746c-0.39-.055-1.17-0.433-3.38-3.063l-0.22-.267v0l-0.17-.209v0L1120.95,26c-2.17-2.658-2.39-3.481-2.36-3.867a1.725,1.725,0,0,1,1.08-1.457,1.256,1.256,0,0,0,.58-0.466,15.651,15.651,0,0,0-1.7-4.364A0.427,0.427,0,0,0,1118.16,15.685Z" transform="translate(-1114 -15)"/>
</svg>
