<svg id="t" xmlns="http://www.w3.org/2000/svg" xmlns:xlink="http://www.w3.org/1999/xlink" width="41" height="41" viewBox="0 0 41 41">
  <metadata><?xpacket begin="﻿" id="W5M0MpCehiHzreSzNTczkc9d"?>
<x:xmpmeta xmlns:x="adobe:ns:meta/" x:xmptk="Adobe XMP Core 5.6-c138 79.159824, 2016/09/14-01:09:01        ">
   <rdf:RDF xmlns:rdf="http://www.w3.org/1999/02/22-rdf-syntax-ns#">
      <rdf:Description rdf:about=""/>
   </rdf:RDF>
</x:xmpmeta>
                                                                                                    
                                                                                                    
                                                                                                    
                                                                                                    
                                                                                                    
                                                                                                    
                                                                                                    
                                                                                                    
                                                                                                    
                                                                                                    
                                                                                                    
                                                                                                    
                                                                                                    
                                                                                                    
                                                                                                    
                                                                                                    
                                                                                                    
                                                                                                    
                                                                                                    
                                                                                                    
                           
<?xpacket end="w"?></metadata>
<defs>
    <style>
      .cls-1 {
        fill: #7442d1;
        fill-rule: evenodd;
        filter: url(#filter);
      }

      .cls-2 {
        fill: #201f20;
        fill-opacity: 0;
        stroke: #99b0b7;
        stroke-linejoin: round;
        stroke-width: 1px;
      }
    </style>
    <filter id="filter" x="1291" y="5473" width="20.03" height="18" filterUnits="userSpaceOnUse">
      <feFlood result="flood" flood-color="#838a94"/>
      <feComposite result="composite" operator="in" in2="SourceGraphic"/>
      <feBlend result="blend" in2="SourceGraphic"/>
    </filter>
  </defs>
  <path id="t_копия" data-name="t копия" class="cls-1" d="M1297.38,5490.99a10.827,10.827,0,0,1-6.03-1.73,0.337,0.337,0,0,1-.14-0.37,0.341,0.341,0,0,1,.3-0.24h0.13a6.963,6.963,0,0,0,4.16-1.35,5.638,5.638,0,0,1-3.9-3.2,0.351,0.351,0,0,1,.06-0.38,0.289,0.289,0,0,1,.36-0.05,2.133,2.133,0,0,0,1.41.27,4.916,4.916,0,0,1-2.63-3.51c-0.04-.24-0.07-0.51-0.09-0.78a0.323,0.323,0,0,1,.18-0.32,0.274,0.274,0,0,1,.3.03c0.02,0.01.03,0.02,0.05,0.03a2.491,2.491,0,0,0,.75.33,5.428,5.428,0,0,1-.66-5.61,0.351,0.351,0,0,1,.24-0.19,0.307,0.307,0,0,1,.28.12,10.131,10.131,0,0,0,7.97,4.3c-0.02-.2-0.03-0.41-0.03-0.62a4.591,4.591,0,0,1,1.3-3.35,4.067,4.067,0,0,1,3.08-1.38h0.12a4.1,4.1,0,0,1,3.09,1.38l0.06,0.07,0.51-.09,0.44-.15c0.47-.14.93-0.28,1.37-0.43a0.285,0.285,0,0,1,.34.11,0.349,0.349,0,0,1,.01.38,12.475,12.475,0,0,1-1,1.33,4.366,4.366,0,0,0,1.15-.4,0.306,0.306,0,0,1,.37.08,0.347,0.347,0,0,1,.02.4,6.356,6.356,0,0,1-1.83,1.94c0.01,0.28.02,0.56,0.02,0.85a12.511,12.511,0,0,1-3.46,8.86,11.25,11.25,0,0,1-7.73,3.66l-0.56.01h-0.01Zm-4.77-1.74a10.509,10.509,0,0,0,4.76,1.09l0.55-.01a10.544,10.544,0,0,0,7.33-3.47,11.853,11.853,0,0,0,3.27-8.4c0-.35-0.01-0.68-0.02-1.02a0.323,0.323,0,0,1,.15-0.3,4.677,4.677,0,0,0,1.15-.97,5.076,5.076,0,0,1-1.17.16,0.316,0.316,0,0,1-.28-0.2,0.341,0.341,0,0,1,.06-0.36c0.35-.39.66-0.75,0.93-1.09-0.16.05-.32,0.1-0.47,0.15l-0.48.15c-0.25.05-.49,0.1-0.71,0.13a0.284,0.284,0,0,1-.26-0.09l-0.18-.19a3.443,3.443,0,0,0-2.65-1.19h-0.12a3.458,3.458,0,0,0-2.65,1.19,3.941,3.941,0,0,0-1.12,2.89,5.143,5.143,0,0,0,.08.88,0.317,0.317,0,0,1-.06.27,0.28,0.28,0,0,1-.23.12h-0.16a10.519,10.519,0,0,1-8.32-4.12,4.858,4.858,0,0,0,1.23,5.03,0.321,0.321,0,0,1,.06.35,0.288,0.288,0,0,1-.27.2h-0.09a3.1,3.1,0,0,1-1.25-.25c0,0.04.01,0.07,0.01,0.11a4.482,4.482,0,0,0,3.02,3.39,0.318,0.318,0,0,1,.2.29,0.323,0.323,0,0,1-.19.31,2.864,2.864,0,0,1-1.86.26,5.283,5.283,0,0,0,3.71,2.25,0.323,0.323,0,0,1,.25.24,0.332,0.332,0,0,1-.11.34A7.747,7.747,0,0,1,1292.61,5489.25Zm16.02-12.92h-0.02a0.331,0.331,0,0,1,0-.66,0.331,0.331,0,0,1,.32.33A0.315,0.315,0,0,1,1308.63,5476.33Z" transform="translate(-1279.5 -5461.5)"/>
  <circle id="Эллипс_1_копия" data-name="Эллипс 1 копия" class="cls-2" cx="20.5" cy="20.5" r="20"/>
</svg>
