<svg id="You_Tube" data-name="You Tube" xmlns="http://www.w3.org/2000/svg" xmlns:xlink="http://www.w3.org/1999/xlink" width="41" height="41" viewBox="0 0 41 41">
  <metadata><?xpacket begin="﻿" id="W5M0MpCehiHzreSzNTczkc9d"?>
<x:xmpmeta xmlns:x="adobe:ns:meta/" x:xmptk="Adobe XMP Core 5.6-c138 79.159824, 2016/09/14-01:09:01        ">
   <rdf:RDF xmlns:rdf="http://www.w3.org/1999/02/22-rdf-syntax-ns#">
      <rdf:Description rdf:about=""/>
   </rdf:RDF>
</x:xmpmeta>
                                                                                                    
                                                                                                    
                                                                                                    
                                                                                                    
                                                                                                    
                                                                                                    
                                                                                                    
                                                                                                    
                                                                                                    
                                                                                                    
                                                                                                    
                                                                                                    
                                                                                                    
                                                                                                    
                                                                                                    
                                                                                                    
                                                                                                    
                                                                                                    
                                                                                                    
                                                                                                    
                           
<?xpacket end="w"?></metadata>
<defs>
    <style>
      .cls-1 {
        fill: #201f20;
        fill-opacity: 0;
        stroke: #99b0b7;
        stroke-linejoin: round;
        stroke-width: 1px;
      }

      .cls-2 {
        fill: #7442d1;
        fill-rule: evenodd;
        filter: url(#filter);
      }
    </style>
    <filter id="filter" x="1190" y="5475" width="20" height="14" filterUnits="userSpaceOnUse">
      <feFlood result="flood" flood-color="#838a94"/>
      <feComposite result="composite" operator="in" in2="SourceGraphic"/>
      <feBlend result="blend" in2="SourceGraphic"/>
    </filter>
  </defs>
  <circle id="Эллипс_1_копия" data-name="Эллипс 1 копия" class="cls-1" cx="20.5" cy="20.5" r="20"/>
  <path id="YuoTube_копия" data-name="YuoTube копия" class="cls-2" d="M1208.1,5489h-16.21a1.735,1.735,0,0,1-1.9-1.98v-10.06a1.731,1.731,0,0,1,1.9-1.97h16.21a1.734,1.734,0,0,1,1.91,1.97v10.06A1.737,1.737,0,0,1,1208.1,5489Zm-16.21-13.33a1.088,1.088,0,0,0-1.24,1.29v10.06a1.084,1.084,0,0,0,1.24,1.29h16.21a1.084,1.084,0,0,0,1.24-1.29v-10.06a1.088,1.088,0,0,0-1.24-1.29h-16.21Zm6.29,10a0.293,0.293,0,0,1-.16-0.04,0.345,0.345,0,0,1-.17-0.31v-6.53a0.353,0.353,0,0,1,.18-0.31,0.321,0.321,0,0,1,.35.04l4.33,3.46a0.315,0.315,0,0,1,.13.28,0.337,0.337,0,0,1-.14.28l-4.34,3.07A0.3,0.3,0,0,1,1198.18,5485.67Zm0.33-6.18v5.18l3.44-2.43Z" transform="translate(-1179.5 -5461.5)"/>
</svg>
